<svg xmlns="http://www.w3.org/2000/svg" width="40" height="76" viewBox="0 0 40 76"><g><g><path fill="#fff" d="M19.499.197a5.487 5.487 0 0 1 5.487 5.487v1.99a5.487 5.487 0 0 1-10.974 0v-1.99A5.487 5.487 0 0 1 19.499.197zm0 62.828a5.487 5.487 0 0 1 5.487 5.487v1.99a5.487 5.487 0 0 1-10.974 0v-1.99a5.487 5.487 0 0 1 5.487-5.487zm3.288-55.293c5.775.693 10.065 3.264 12.867 7.717 1.766 2.807.523 6.534-2.545 7.793a5.375 5.375 0 0 1-6.58-2.084c-1.785-2.815-4.1-4.223-6.953-4.223-2 0-3.607.614-4.811 1.84-1.212 1.227-1.818 2.718-1.818 4.464 0 1.782.584 3.148 1.752 4.105 1.161.95 3.664 2.125 7.49 3.535 4.205 1.534 7.505 2.987 9.892 4.353 2.395 1.366 4.3 3.258 5.73 5.661 1.424 2.41 2.14 5.223 2.14 8.444 0 4.944-1.475 9.064-4.417 12.358-2.942 3.302-7.19 5.245-12.747 5.83 0 0-2.082.476-3.787.486-1.831.012-3.294-.443-3.294-.443-7.125-.73-12.16-4.088-15.112-10.066-1.5-3.04.21-6.692 3.49-7.548l.414-.108c2.477-.645 5.08.536 6.192 2.842 1.648 3.415 4.593 5.121 8.834 5.121 2.665 0 4.636-.657 5.891-1.98 1.256-1.321 1.884-2.913 1.884-4.783 0-1.936-.628-3.404-1.884-4.397-1.255-1.001-4.05-2.265-8.38-3.799-3.891-1.35-6.935-2.68-9.126-4.01-2.19-1.314-3.971-3.162-5.337-5.536-1.364-2.382-2.05-5.157-2.05-8.313 0-4.141 1.226-7.874 3.665-11.19 2.438-3.309 6.278-5.332 11.519-6.07"/></g></g></svg>