<svg xmlns="http://www.w3.org/2000/svg" width="88" height="88" viewBox="0 0 88 88"><g><g><path fill="#aeb8c4" d="M82.746 51.8c-2.909 1.033-5.731 3.556-6.552 5.538-.818 1.982-.602 5.76.723 8.548 1.325 2.787.522 6.924-1.792 9.238-2.315 2.316-6.453 3.118-9.24 1.794-2.787-1.327-6.57-1.544-8.552-.72-1.982.826-4.499 3.654-5.534 6.556-1.034 2.902-4.529 5.257-7.802 5.257-3.275 0-6.768-2.355-7.803-5.257-1.034-2.902-3.554-5.732-5.538-6.554-1.983-.822-5.76-.61-8.549.718-2.788 1.324-6.924.522-9.24-1.794-2.314-2.314-3.116-6.451-1.79-9.238s1.54-6.564.717-8.545c-.825-1.982-3.638-4.508-6.546-5.542-2.91-1.035-5.266-4.529-5.266-7.802 0-3.274 2.357-6.764 5.266-7.794 2.908-1.029 5.718-3.556 6.542-5.541.823-1.986.613-5.766-.713-8.554-1.326-2.788-.524-6.924 1.79-9.24 2.316-2.315 6.455-3.117 9.24-1.791 2.787 1.326 6.566 1.543 8.55.722 1.981-.82 4.503-3.643 5.537-6.551 1.035-2.909 4.528-5.266 7.803-5.266 3.273 0 6.768 2.357 7.802 5.266 1.035 2.908 3.556 5.731 5.538 6.551 1.982.82 5.762.604 8.548-.722 2.789-1.326 6.925-.524 9.24 1.791 2.314 2.316 3.117 6.454 1.792 9.24-1.325 2.787-1.538 6.57-.717 8.557.818 1.988 3.637 4.51 6.546 5.538 2.908 1.03 5.265 4.52 5.265 7.794 0 3.273-2.357 6.767-5.265 7.802zM60.13 44.014c0-8.93-7.22-16.15-16.132-16.15-8.93 0-16.152 7.22-16.152 16.15 0 8.912 7.221 16.132 16.152 16.132 8.912 0 16.132-7.22 16.132-16.132z"/></g></g></svg>