<svg xmlns="http://www.w3.org/2000/svg" width="88" height="88" viewBox="0 0 88 88"><g><g><path fill="#aeb8c4" d="M43.999 87.987c-24.4 0-44-19.6-44-44.001 0-24.4 19.6-44 44-44s44 19.6 44 44-19.6 44-44 44zm21.415-67.201c-.178 0-.357.178-.535.178L32.756 31.672a1.61 1.61 0 0 0-1.071 1.07L20.977 64.867c-.178.179-.178.357-.178.536 0 1.07.713 1.784 1.784 1.784.179 0 .357-.178.536-.178L55.242 56.3a1.61 1.61 0 0 0 1.07-1.07L67.02 23.105c.179-.179.179-.357.179-.536 0-1.07-.714-1.784-1.785-1.784zM44.8 49.586a6.4 6.4 0 1 1 0-12.8 6.4 6.4 0 0 1 0 12.8z"/></g></g></svg>