<svg xmlns="http://www.w3.org/2000/svg" width="94" height="120" viewBox="0 0 94 120"><defs><clipPath id="yq42a"><path fill="#fff" d="M19 101V19h56v82zm55-27.667c0-6.457-3.504-12.119-8.732-15.233 2.638-3.093 4.232-7.083 4.232-11.433 0-8.27-5.746-15.237-13.5-17.216v-5.007C56 21.99 53.985 20 51.5 20c-2.486 0-4.5 1.99-4.5 4.444v4.445h-9v-4.445C38 21.99 35.984 20 33.5 20S29 21.99 29 24.444v4.445h-4.5c-2.481 0-4.5 1.99-4.5 4.444C20 35.785 22.524 38 25 38h4v44h-5c-2.471 0-4 2.21-4 4.666 0 2.452 2.024 4.445 4.5 4.445H29v4.444C29 98.01 31.014 100 33.5 100c2.485 0 4.5-1.99 4.5-4.445v-4.444h9v4.444C47 98.01 49.014 100 51.5 100c2.485 0 4.5-1.99 4.5-4.445v-4.444c9.925 0 18-7.975 18-17.778zM38 37.996h13.8c5.072 0 9.2 4.037 9.2 8.999 0 4.961-4.128 8.998-9.2 8.998H38zm18 44.007H38V64.007h18c4.962 0 9 4.036 9 8.998s-4.038 8.998-9 8.998z"/></clipPath></defs><g><g><path fill="#fff" d="M74 73.333c0 9.803-8.075 17.778-18 17.778v4.444C56 98.01 53.985 100 51.5 100c-2.486 0-4.5-1.99-4.5-4.445v-4.444h-9v4.444C38 98.01 35.984 100 33.5 100c-2.486 0-4.5-1.99-4.5-4.445v-4.444h-4.5c-2.476 0-4.5-1.993-4.5-4.445C20 84.21 21.529 82 24 82h5V38h-4c-2.476 0-5-2.215-5-4.667 0-2.453 2.019-4.444 4.5-4.444H29v-4.445C29 21.99 31.015 20 33.5 20s4.5 1.99 4.5 4.444v4.445h9v-4.445C47 21.99 49.014 20 51.5 20c2.485 0 4.5 1.99 4.5 4.444v5.007c7.754 1.979 13.5 8.947 13.5 17.216 0 4.35-1.594 8.34-4.232 11.433C70.496 61.214 74 66.876 74 73.333zm-36-17.34h13.8c5.072 0 9.2-4.037 9.2-8.998 0-4.962-4.128-8.999-9.2-8.999H38zm27 17.012c0-4.962-4.038-8.998-9-8.998H38v17.996h18c4.962 0 9-4.036 9-8.998z"/><path fill="none" stroke="#fff" stroke-miterlimit="20" stroke-width="2" d="M74 73.333c0 9.803-8.075 17.778-18 17.778v4.444C56 98.01 53.985 100 51.5 100c-2.486 0-4.5-1.99-4.5-4.445v-4.444h-9v4.444C38 98.01 35.984 100 33.5 100c-2.486 0-4.5-1.99-4.5-4.445v-4.444h-4.5c-2.476 0-4.5-1.993-4.5-4.445C20 84.21 21.529 82 24 82h5V38h-4c-2.476 0-5-2.215-5-4.667 0-2.453 2.019-4.444 4.5-4.444H29v-4.445C29 21.99 31.015 20 33.5 20s4.5 1.99 4.5 4.444v4.445h9v-4.445C47 21.99 49.014 20 51.5 20c2.485 0 4.5 1.99 4.5 4.444v5.007c7.754 1.979 13.5 8.947 13.5 17.216 0 4.35-1.594 8.34-4.232 11.433C70.496 61.214 74 66.876 74 73.333zm-36-17.34h13.8c5.072 0 9.2-4.037 9.2-8.998 0-4.962-4.128-8.999-9.2-8.999H38zm27 17.012c0-4.962-4.038-8.998-9-8.998H38v17.996h18c4.962 0 9-4.036 9-8.998z" clip-path="url(&quot;#yq42a&quot;)"/></g></g></svg>