<svg xmlns="http://www.w3.org/2000/svg" width="72" height="86" viewBox="0 0 72 86"><g><g><path fill="#aeb8c4" d="M70.63 65.457C69.987 66.68 68.354 68 67 68H5c-1.355 0-2.995-1.32-3.635-2.543-3.54-6.734.62-10.47 2.855-12.477.904-.813 1.758-1.582 2.201-2.403.038-.06.061-.105.088-.15 1.596-2.615 2.178-8.956 2.524-12.745.05-.562.098-1.098.149-1.604l.016-.137c.783-5.62 2.72-13.689 7.515-20.34 3.353-4.659 7.536-7.777 12.44-9.28.356-3.549 3.288-6.326 6.845-6.326 3.552 0 6.489 2.776 6.844 6.325 4.9 1.505 9.083 4.623 12.44 9.28 4.795 6.652 6.733 14.722 7.511 20.32.007.069.014.115.017.162.051.5.102 1.038.153 1.6.349 3.788.924 10.128 2.513 12.729.04.07.074.124.101.178.44.81 1.294 1.579 2.198 2.391 2.236 2.008 6.391 5.744 2.855 12.477zm-42 9.557h14.476c.816 0 1.275.432 1.474.689.57.726.416 1.59.341 2.005-.007.035-.013.067-.017.096-.614 4.677-4.448 8.205-8.916 8.205-4.385 0-8.114-3.315-8.867-7.883l-.01-.059c-.114-.682-.283-1.713.304-2.455.3-.38.742-.598 1.215-.598z"/></g></g></svg>